<svg id="Layer_1" data-name="Layer 1" xmlns="http://www.w3.org/2000/svg" viewBox="0 0 219.8276 189.6552"><defs><style>.cls-1{fill:#fbf8f0;}</style></defs><path class="cls-1" d="M206.7236,60.516c-.029-1.1852-.1373-2.372-.212-3.5541-.0915-1.4308-.1892-2.8463-.3524-4.271a49.0726,49.0726,0,0,0-2.0012-9.8676A30.6131,30.6131,0,0,0,199.89,34.33a29.1814,29.1814,0,0,0-3.1209-3.6365,26.2232,26.2232,0,0,0-4.0437-3.1712,28.0367,28.0367,0,0,0-8.7038-3.5709,42.6273,42.6273,0,0,0-4.9437-.8054,47.9817,47.9817,0,0,0-4.84-.3188q-.3967-.0072-.7929-.0072a64.1757,64.1757,0,0,0-9.16.7562A63.5357,63.5357,0,0,0,145.9669,29.15a82.5073,82.5073,0,0,0-8.1,4.59c-1.9509,1.2264-3.9263,2.4772-5.7659,3.8683q-2.9561,2.2354-5.9123,4.4723-2.5077,1.8992-5.0169,3.7967c-1.3164.996-2.5214,2.1385-3.76,3.2307q-3.1621,2.7938-6.3272,5.5874c-.2473.2182-.4908.44-.7362.66-.4412-.7717-.8907-1.5374-1.3744-2.2876-.842-1.3057-1.7191-2.5885-2.645-3.8378a44.4292,44.4292,0,0,0-6.2448-7,31.423,31.423,0,0,0-3.8683-2.915,26.6232,26.6232,0,0,0-4.7744-2.2667,38.87,38.87,0,0,0-9.5427-1.9921c-2.8509-.33-5.7369-.5125-8.6045-.6147q-.8876-.0318-1.77-.0315a60.7182,60.7182,0,0,0-8.3522.6172,35.0369,35.0369,0,0,0-8.6777,2.3369,50.4921,50.4921,0,0,0-4.6463,2.18,36.509,36.509,0,0,0-3.8088,2.4132,45.9074,45.9074,0,0,0-7.41,6.6033,54.8993,54.8993,0,0,0-5.9871,8.031,66.5638,66.5638,0,0,0-4.5349,9.2635,65.4116,65.4116,0,0,0-2.9379,8.64,58.44,58.44,0,0,0-1.6245,10.11,70.0965,70.0965,0,0,0,1.4446,19.9594,39.6686,39.6686,0,0,0,3.6837,9.54,53.47,53.47,0,0,0,5.0032,7.5993,85.9653,85.9653,0,0,0,13.109,13.6688,66.477,66.477,0,0,0,8.0661,5.8162,58.0715,58.0715,0,0,0,9.1522,4.3275c3.8286,1.49,7.8175,2.5275,11.759,3.6731,1.7755.5155,3.5785.9716,5.3235,1.5879q3.07,1.0834,6.1405,2.1668,2.34.998,4.68,1.9974c1.0312.4439,2.0227,1.022,3.0248,1.5284.7673.389,1.5712.74,2.3094,1.1806q1.6794,1.0045,3.3574,2.009c.7916.4728,1.6107.9167,2.381,1.4246,2.2,1.45,4.4359,2.8538,6.5527,4.4249q1.2127.98,2.3356,2.0625a25.6324,25.6324,0,0,1,2.1281,2.3953c.687.9349,1.3412,1.8963,2.0179,2.84a29.8888,29.8888,0,0,1,1.7114,2.5153,4.71,4.71,0,0,0,8.1333,0,4.56,4.56,0,0,0,.61-2.5778,4.9877,4.9877,0,0,0,.5471-1.2537,4.8385,4.8385,0,0,0-.4988-3.8149l-.0509-.0762c.0156-.63.0791-1.2616.1539-1.8887a27.96,27.96,0,0,1,1.5569-5.6637c.8936-1.9776,1.95-3.8606,3.026-5.7458.6666-1.1715,1.3423-2.314,2.0714-3.4458.7475-1.1623,1.4629-2.3521,2.2667-3.4763q1.36-1.9008,2.7189-3.8015c2.2856-2.9062,4.5846-5.7977,7.0358-8.5692,1.4064-1.5894,2.7792-3.2155,4.2451-4.7515q1.5261-1.5993,3.0523-3.2c.5369-.5629,1.0555-1.1547,1.62-1.6916q2.4665-2.3477,4.9345-4.6936c.7826-.7444,1.6383-1.4232,2.4544-2.1324s1.6367-1.42,2.4543-2.131c.8038-.6986,1.66-1.3469,2.4863-2.02q1.2447-1.0089,2.4879-2.02c1.5559-1.2624,3.1665-2.465,4.7544-3.6884q-.3416.2639-.6832.5278,4.9994-3.7158,10.0552-7.3522c3.1224-2.2408,6.2936-4.4419,9.2208-6.9374,1.1226-.9579,2.2041-1.9647,3.2307-3.0233a44.2,44.2,0,0,0,3.5343-4.2679,38.5572,38.5572,0,0,0,4.6127-8.5222A45.4569,45.4569,0,0,0,206.7236,60.516Zm-8.988,6.4632a38.1819,38.1819,0,0,1-2.2874,8.3627,36.5926,36.5926,0,0,1-3.9293,6.7851,42.4575,42.4575,0,0,1-6.65,6.4789c-3.8756,2.9225-7.9794,5.5289-11.9226,8.3571-3.7738,2.7075-7.5567,5.4074-11.2206,8.2629-1.687,1.3149-3.4229,2.584-5.0627,3.9553l-3.0019,2.5077c-.66.5522-1.35,1.0815-1.983,1.6641q-2.5053,2.3087-5.0123,4.6173c-.7246.67-1.39,1.4186-2.0791,2.1233q-1.4437,1.4736-2.886,2.9455c-1.5085,1.5406-2.918,3.188-4.3686,4.782-1.39,1.53-2.7151,3.1194-4.0666,4.6844-.61.7078-1.1837,1.4521-1.7725,2.1782-.871,1.0739-1.7648,2.1355-2.587,3.249-1.24,1.6779-2.5336,3.3253-3.6868,5.0642q-1.2356,1.8625-2.4726,3.7265c-.3463.5217-.6361,1.0906-.9518,1.6306q-.6866,1.1715-1.3714,2.346c-.5994,1.0266-1.1424,2.09-1.658,3.1591a40.8865,40.8865,0,0,0-1.7769,4.2285c-.91-.734-1.849-1.4338-2.7971-2.1116-1.1136-.7962-2.2667-1.5269-3.4168-2.27-.8573-.5552-1.6993-1.1517-2.581-1.6672q-1.5009-.8787-3.0034-1.7588-1.4254-.8351-2.854-1.6718c-.25-.1464-.5277-.2593-.79-.3874q-1.0434-.5126-2.0882-1.0251c-1.2081-.5918-2.4009-1.1806-3.6441-1.6977q-1.7367-.723-3.4717-1.446c-.7932-.3295-1.58-.7078-2.3918-.9885q-1.7276-.5994-3.4534-1.1989-1.6589-.5766-3.3146-1.15c-.76-.2639-1.5544-.4515-2.3277-.6758-3.18-.9167-6.3669-1.8152-9.5381-2.7655-1.9485-.5854-3.8556-1.28-5.7382-2.0462a52.03,52.03,0,0,1-10.2956-6.0786,79.4662,79.4662,0,0,1-12.9343-12.9423,49.9184,49.9184,0,0,1-5.8347-9.5958,39.7,39.7,0,0,1-2.1888-8.6678A64.8226,64.8226,0,0,1,34.23,82.658a60.4581,60.4581,0,0,1,3.9-13.751c.9-2.0683,1.8771-4.1026,2.9734-6.0742a47.9294,47.9294,0,0,1,3.5815-5.4692A44.7868,44.7868,0,0,1,51.6,50.3494a38.4109,38.4109,0,0,1,7.1184-4.1879A37.6645,37.6645,0,0,1,66.861,44.02a65.0663,65.0663,0,0,1,9.5422-.3519c2.576.0767,5.1418.1444,7.7032.4419a30.3428,30.3428,0,0,1,6.26,1.5671,21.7254,21.7254,0,0,1,3.7217,2.2136,35.777,35.777,0,0,1,5.2895,5.4731c.8491,1.132,1.6549,2.2943,2.4365,3.4743.86,1.2981,1.6169,2.6389,2.3856,3.9934.0549.0966.116.1877.1781.2777a3.465,3.465,0,0,0,.5886,4.01,3.4243,3.4243,0,0,0,4.7821,0c1.5909-1.4948,3.1544-3.0187,4.7957-4.4571q1.92-1.6816,3.8393-3.3649,3.3459-2.931,6.69-5.8636,4.2056-3.1425,8.4184-6.2722c1.5589-1.1608,3.1148-2.2759,4.7408-3.3436a83.1611,83.1611,0,0,1,12.2757-6.8772,64.2152,64.2152,0,0,1,15.0052-4.0259,54.5889,54.5889,0,0,1,13.1493-.1072,32.3829,32.3829,0,0,1,6.9236,1.7844,23.139,23.139,0,0,1,3.991,2.32,22.7092,22.7092,0,0,1,3.1929,3.2191,25.9449,25.9449,0,0,1,2.61,4.5062,37.6313,37.6313,0,0,1,2.1544,8.3468c.28,2.37.3845,4.7285.4755,7.1126A57.61,57.61,0,0,1,197.7356,66.9792Z"/><path class="cls-1" d="M60.3417,50.47a4.0093,4.0093,0,0,0-1.05.14,19.9834,19.9834,0,0,0-6.3668,3.3863c-.9458.6819-1.8732,1.3988-2.7488,2.1691a25.1537,25.1537,0,0,0-3.4137,3.9278,30.5211,30.5211,0,0,0-2.9226,5.1207c-.61,1.2645-1.1074,2.587-1.6367,3.8866A30.7067,30.7067,0,0,0,40.2364,76.31a39.196,39.196,0,0,0-.42,7.7244c.0641,1.1394.0686,2.2987.1922,3.4336a94.7842,94.7842,0,0,0,1.4567,9.9743,31.9221,31.9221,0,0,0,2.8906,7.9884,23.1606,23.1606,0,0,0,2.4909,3.7844,14.8613,14.8613,0,0,0,2.99,2.7273,3.515,3.515,0,0,0,2.8036.3661,3.6407,3.6407,0,0,0,2.5413-4.4739c-.122-.29-.2456-.58-.3676-.8694A3.6541,3.6541,0,0,0,53.6,105.7155a13.6135,13.6135,0,0,1-1.3193-1.3117,22.0892,22.0892,0,0,1-2.1065-3.7314,34.2041,34.2041,0,0,1-1.8853-7.5215c-.1438-1.19-.2458-2.3771-.3327-3.5738-.0549-.7658-.1418-1.5346-.1555-2.3018q-.0321-1.62-.0641-3.2414a35.533,35.533,0,0,1,.26-4.7571,34.2412,34.2412,0,0,1,2.05-7.2149c.3314-.7676.6553-1.5417,1.039-2.2825a38.9877,38.9877,0,0,1,2.93-4.9659A24.1883,24.1883,0,0,1,57.37,61.4566c1.64-1.2086,3.3116-2.3491,5.0588-3.4027A4.0691,4.0691,0,0,0,60.3417,50.47Z"/></svg>