<svg id="Layer_1" data-name="Layer 1" xmlns="http://www.w3.org/2000/svg" viewBox="0 0 477.578 457.7615"><defs><style>.cls-1{fill:#fbf8f0;}</style></defs><path class="cls-1" d="M418.4139,234.6069q0,73.3424-.0033,146.6845c-.0044,20.6462-12.2481,32.9412-32.8117,32.9427q-146.9339.0109-293.8679-.0011c-20.1739-.002-32.5633-12.4429-32.5649-32.6879q-.012-146.9338,0-293.8679C59.1678,67.4267,71.5508,54.992,91.726,54.99q147.1835-.0138,294.3669.0014c19.8823.0024,32.3075,12.4746,32.3149,32.4317Q418.4354,161.0152,418.4139,234.6069ZM310.9546,402.2623h5.1128q34.92,0,69.84-.0037c13.6079-.0079,20.5264-6.9381,20.5274-20.5795q.01-147.164-.0009-294.3278c-.0011-13.3248-7.0007-20.3844-20.2154-20.3856q-147.4133-.0129-294.8266,0c-13.239.0011-20.25,7.0478-20.251,20.3434q-.0107,147.1638-.0011,294.3278c.0007,13.6535,6.912,20.6186,20.48,20.6215q73.83.0156,147.66.0041h5.019V279.4813H199.818V215.3178h44.8912c0-2.8559-.0478-5.1577.0079-7.457.3216-13.2841-.195-26.6576,1.1794-39.8331,3.16-30.2984,22.8034-51.7321,52.4507-58.4332,15.7949-3.57,31.7777-1.8484,47.6953-1.1586,6.0712.2631,12.1172,1.1056,18.1626,1.6828v58.2979c-2.0829,0-3.8749-.0129-5.6666.0022-11.1388.0937-22.2832.013-33.414.3644-5.97.1885-12.1586,2.2428-12.9021,8.7912-1.4092,12.4125-1.45,24.98-2.0853,38.019h53.3056c-2.7868,21.56-5.5049,42.589-8.2911,64.1444h-44.197ZM352.2623,121.08c-17.2619-1.2082-34.3186-3.2858-51.27.1937-16.6792,3.4235-29.511,12.4753-37.2941,27.9711a67.3841,67.3841,0,0,0-6.9314,29.8327c-.1689,14.2941-.0594,28.5914-.0929,42.8873-.0041,1.7428-.1546,3.4852-.2613,5.7344H211.8083v40.1982h44.9751V401.96H298.83V267.6966h45.7976c1.7432-13.6166,3.4174-26.6936,5.1819-40.4761H298.95c0-15.4052-.5811-30.2189.1595-44.9663.7777-15.4864,9.7689-24.1692,24.8379-25.4067,5.6207-.4616,11.2931-.3174,16.9426-.3959,3.7677-.0523,7.5367-.01,11.3724-.01Z"/><path class="cls-1" d="M88.6215,360.2994c3.928.4112,6.3308,2.2573,6.3438,5.9864.013,3.695-2.2515,5.9276-5.9455,5.9211-3.449-.0061-5.6149-2.1388-5.8009-5.58C83.014,362.837,85.4419,361.0312,88.6215,360.2994Z"/><path class="cls-1" d="M107.0432,366.4115c.4312-3.6151,2.3085-5.9885,6.0413-5.9452,3.6957.043,5.8965,2.3345,5.8336,6.0294a5.43,5.43,0,0,1-5.6643,5.713C109.527,372.3225,107.5771,370.0307,107.0432,366.4115Z"/><path class="cls-1" d="M130.9983,366.5746c.33-3.6494,2.1692-6.0545,5.8922-6.1077,3.6955-.0529,5.9437,2.1879,5.98,5.8846a5.4347,5.4347,0,0,1-5.5223,5.8543C133.6252,372.4205,131.625,370.1565,130.9983,366.5746Z"/><path class="cls-1" d="M154.9109,366.5477c.5278-3.8541,2.452-6.1938,6.1808-6.08,3.6876.1122,5.8626,2.4408,5.7247,6.1352a5.4338,5.4338,0,0,1-5.7693,5.6089C157.3124,372.2537,155.4716,369.869,154.9109,366.5477Z"/><path class="cls-1" d="M184.9334,360.3278c3.6118.5155,5.9583,2.4387,5.8313,6.1683-.1253,3.6838-2.4622,5.86-6.1546,5.7075a5.43,5.43,0,0,1-5.589-5.7869C178.992,362.6723,181.3259,360.7959,184.9334,360.3278Z"/><path class="cls-1" d="M202.813,366.7013c.4486-3.8856,2.3186-6.2645,6.0511-6.235,3.6965.0292,5.9028,2.3135,5.8544,6.0087a5.4414,5.4414,0,0,1-5.6438,5.7375C205.3176,372.3585,203.47,369.9661,202.813,366.7013Z"/><path class="cls-1" d="M232.51,360.2922c3.88.5135,6.2428,2.4131,6.1557,6.1441-.0861,3.6886-2.4023,5.8793-6.0955,5.7684a5.4362,5.4362,0,0,1-5.65-5.7282C226.8373,362.7107,229.2539,360.9146,232.51,360.2922Z"/><path class="cls-1" d="M316.6066,366.2533c.5331-3.61,2.4728-5.905,6.2059-5.7929a5.427,5.427,0,0,1,5.6686,5.7064c.0663,3.6957-2.1381,5.9917-5.8288,6.0366C318.926,372.2487,317.0377,369.8776,316.6066,366.2533Z"/><path class="cls-1" d="M340.5621,366.0847c.6284-3.5724,2.6214-5.8365,6.35-5.6206a5.4306,5.4306,0,0,1,5.5218,5.8518c-.0357,3.6973-2.2893,5.9412-5.98,5.887C342.7378,372.1484,340.888,369.7449,340.5621,366.0847Z"/><path class="cls-1" d="M364.5081,366.1827c.5727-3.5914,2.5327-5.8739,6.2643-5.7207a5.4276,5.4276,0,0,1,5.61,5.7644c.0254,3.6958-2.1967,5.9716-5.8895,5.977C366.7688,372.2088,364.8992,369.8238,364.5081,366.1827Z"/><path class="cls-1" d="M388.4318,366.8469c.377-3.9466,2.2239-6.3452,5.9491-6.38,3.6955-.0347,5.9353,2.2143,5.9525,5.9118.0161,3.4611-2.127,5.6294-5.5492,5.8332C391.0118,372.4364,389.1662,370.0282,388.4318,366.8469Z"/></svg>