<svg id="Layer_1" data-name="Layer 1" xmlns="http://www.w3.org/2000/svg" viewBox="0 0 144.9908 161.8349"><defs><style>.cls-1{fill:#8da580;stroke:#1a1a1a;stroke-miterlimit:10;stroke-width:0.5px;}</style></defs><path class="cls-1" d="M32.84,91.0859c-.4737,3.2558-.92,6.5159-1.4284,9.7663-.607,3.88-1.2964,7.7469-1.8916,11.6285-.2608,1.7-1.0241,2.8171-2.8576,2.7915-1.5617-.0218-2.486-1.2585-2.4876-3.3281q-.0122-15.6478.0176-31.2957c.0029-3.7966.0848-7.5963-.0543-11.3877A4.2647,4.2647,0,0,0,22.88,66.5478c-3.304-3.0139-6.73-5.8947-10.1345-8.7974-1.2356-1.0535-2.5069-2.0793-1.326-3.8931.8484-1.3032,2.15-1.2278,4.26.1682,3.5043,2.3179,6.9727,4.6922,10.5241,6.9353a7.8564,7.8564,0,0,0,2.99.9595,19.8917,19.8917,0,0,0,16.8709-4.9016,23.8576,23.8576,0,0,1,5.028-3.413,3.9792,3.9792,0,0,1,3.2831-.086c3.8626,2.3737,7.5389,5.0486,11.3455,7.5176a7.1456,7.1456,0,0,0,2.8035.88,20.1123,20.1123,0,0,0,17.044-4.9715,23.0021,23.0021,0,0,1,5.0267-3.4094,3.9669,3.9669,0,0,1,3.2824.0534c3.9152,2.4186,7.6655,5.1029,11.5112,7.637a4.1244,4.1244,0,0,0,2.0511.676c2.9811.0741,5.9674.0976,8.9466-.0078a5.0551,5.0551,0,0,0,2.39-.9c3.698-2.3915,7.3575-4.8429,11.0158-7.2951,1.3094-.8777,2.6637-1.3554,3.7527.1381,1.077,1.4769.2358,2.6159-.974,3.64-3.5176,2.979-7.0389,5.9571-10.4515,9.0536a4.1241,4.1241,0,0,0-1.3006,2.6823c-.0406,13.0755.0321,26.1514.067,39.2272.0036,1.3537-.0391,2.7086-.0991,4.0612a2.536,2.536,0,0,1-2.4327,2.7477c-1.6986.1281-2.5984-.8454-2.858-2.505q-1.57-10.0356-3.18-20.0648a2.3712,2.3712,0,0,0-.712-1.429q-1.2142,7.9866-2.431,15.9726c-.2973,1.937-.5984,3.8739-.945,5.8023a2.4327,2.4327,0,0,1-2.6893,2.2327,2.55,2.55,0,0,1-2.55-2.84q-.0588-6.7071-.0535-13.4147c.0087-10.1.045-20.2.03-30.3a2.351,2.351,0,0,0-.5947-1.6012c-3.3416-2.9591-6.7437-5.85-10.1794-8.8048-3.4281,2.9528-6.8038,5.7833-10.0611,8.7441a3.4479,3.4479,0,0,0-.7414,2.3274q-.05,20.7421-.0019,41.4846c0,.5424.0157,1.0853-.0037,1.627a2.539,2.539,0,0,1-2.4129,2.7647c-1.6829.1421-2.6229-.8155-2.8837-2.4794q-1.6037-10.2306-3.2288-20.4577a1.4677,1.4677,0,0,0-.5657-1.0544c-.3713,2.1691-.7676,4.3343-1.109,6.5081-.7862,5.0059-1.5452,10.0161-2.3162,15.0245-.2554,1.659-1.213,2.6277-2.9,2.4557s-2.3935-1.3575-2.4043-2.9941c-.0317-4.8091-.0975-9.6184-.09-14.4275q.0207-14.2317.1315-28.4632A3.3747,3.3747,0,0,0,62.26,66.4189c-3.1781-2.631-6.2674-5.3692-9.4649-8.13-3.478,2.9965-6.883,5.8853-10.2141,8.8568a2.6283,2.6283,0,0,0-.6238,1.7872q-.0411,20.5394-.0059,41.0787c0,.8136.0054,1.6273-.0083,2.4406a2.6394,2.6394,0,1,1-5.2681.3352q-1.6458-10.5361-3.3031-21.07c-.0312-.1985-.0783-.3944-.118-.5915Z"/><path class="cls-1" d="M105.6864,52.7373a6.213,6.213,0,1,1,6.2322,6.338A6.1958,6.1958,0,0,1,105.6864,52.7373Z"/><path class="cls-1" d="M33.1671,46.5671a6.2546,6.2546,0,1,1-.15,12.5082,6.2546,6.2546,0,0,1,.15-12.5082Z"/><path class="cls-1" d="M66.2679,52.8045a6.2362,6.2362,0,1,1,6.1085,6.2712A6.23,6.23,0,0,1,66.2679,52.8045Z"/></svg>