<svg id="Layer_1" data-name="Layer 1" xmlns="http://www.w3.org/2000/svg" viewBox="0 0 144.9908 161.8349"><defs><style>.cls-1{fill:#8da580;stroke:#1a1a1a;stroke-miterlimit:10;stroke-width:0.5px;}</style></defs><path class="cls-1" d="M67.8508,123.0856c0-1.724-.0473-3.43.0072-5.1317q1.0243-32.0106,2.0743-64.02c.046-1.4127-.36-1.8607-1.7395-1.8621-9.1279-.0092-18.2559-.0219-27.3837.0105a3.0385,3.0385,0,0,0-1.4345.629c-.9749.6261-1.9109,1.3129-3.0279,2.09.039.1373.1237.52.2551.885,4.4378,12.34,8.8359,24.6948,13.3629,37.0022a7.0765,7.0765,0,0,1-.4073,5.9778c-2.8721,5.6985-7.8243,8.0657-13.9129,8.3836a16.167,16.167,0,0,1-12.7467-4.5258A17.936,17.936,0,0,1,19.89,98.1349a6.4847,6.4847,0,0,1-.1668-5.5256C24.2423,80.3,28.6529,67.9508,33.0978,55.6144c.1094-.3037.2023-.6134.3381-1.0278-1.8114-.6681-3.5184-1.4907-4.0083-3.5375a9.669,9.669,0,0,1-.0263-2.1939l.39-.0733c.1753.2354.364.462.5238.7075a4.6145,4.6145,0,0,0,4.44,2.2692,3.696,3.696,0,0,0,3.3563-2.7856c.27-.7874.7745-.7759,1.4151-.7754q14.1193.0112,28.2389-.0035c1.6448-.0008,2.2088-.6943,2.4861-2.2971a5.1245,5.1245,0,0,0-1.6966-4.581,1.7405,1.7405,0,0,1-.2849-2.1855c1.22-2.7549,2.337-5.5555,3.4988-8.3364.1691-.4047.3659-.7979.68-1.4791a13.717,13.717,0,0,1,.7354,1.2844c1.2146,2.8912,2.377,5.805,3.6376,8.6758a1.6026,1.6026,0,0,1-.2954,1.9682c-1.19,1.325-2.1006,2.7021-1.7206,4.6924.296,1.5509.8153,2.2542,2.3814,2.2557q14.1807.0132,28.3615.0086c.6581-.0005,1.1174.05,1.3843.8144a3.6806,3.6806,0,0,0,3.384,2.7457,4.5509,4.5509,0,0,0,4.2786-2.1057c.1977-.2886.3879-.5824.6065-.9114,1.3511,2.1556.2246,3.9717-3.6128,5.9062q1.6584,4.6277,3.3276,9.2825c3.5909,9.9607,7.2433,19.9,10.7031,29.9062a6.7187,6.7187,0,0,1-.4129,4.1146,13.2,13.2,0,0,1-8.7839,8.0707c-6.38,2.0782-12.3961,1.34-17.72-3.0192a11.1641,11.1641,0,0,1-3.9214-6.32,6.33,6.33,0,0,1,.12-3.3114c4.45-12.5519,8.9844-25.0736,13.4952-37.6038.1357-.377.2478-.7625.2812-.8659-1.2138-.9491-2.2622-1.8052-3.3564-2.5981a1.8386,1.8386,0,0,0-1.0218-.2382q-13.7532-.0117-27.5064.007c-1.33.0015-1.7259.429-1.6811,1.7927q.9655,29.4439,1.9385,58.8878c.1007,3.0542.244,6.108.2759,9.1629.01.9777.32,1.3152,1.2819,1.4484a27.7335,27.7335,0,0,1,10.6283,3.42,9.066,9.066,0,0,1,4.12,4.3573,9.4473,9.4473,0,0,1,.3071,1.3764H51.1519a19.1916,19.1916,0,0,1,1.3254-2.8255,11.8644,11.8644,0,0,1,6.1182-4.2744c2.4876-.865,5.093-1.3927,7.65-2.0547C66.6729,123.2547,67.1173,123.211,67.8508,123.0856ZM124.272,94.4547,110.3528,55.4525l-.339.0271c-4.622,12.9559-9.2441,25.9118-13.9044,38.9751ZM20.7591,94.44H48.9143C44.2419,81.3491,39.62,68.4,34.9987,55.451l-.334.02C30.041,68.4288,25.4174,81.3861,20.7591,94.44Z"/></svg>