<svg id="Layer_1" data-name="Layer 1" xmlns="http://www.w3.org/2000/svg" viewBox="0 0 144.9908 161.8349"><defs><style>.cls-1{fill:#8da580;stroke:#1a1a1a;stroke-miterlimit:10;stroke-width:0.5px;}</style></defs><path class="cls-1" d="M45.7756,137.5073a17.41,17.41,0,0,1-2.4168-2.0041c-7.9646-9.4144-15.8671-18.8813-23.8364-28.2917a14.4232,14.4232,0,0,1-3.5277-9.4123q-.14-15.1859-.0174-30.3737a9.9187,9.9187,0,0,1,19.8312.006c.0775,6.5526.0247,13.1067.0237,19.66a3.1785,3.1785,0,0,0,.996,2.7158,9.9139,9.9139,0,0,1,6.664-5.2632,9.75,9.75,0,0,1,9.4971,2.817q7.7769,7.6866,15.5687,15.358c1.3363,1.309,2.7745,2.5138,4.3557,3.9375,4.5745-4.652,9.3878-9.5583,14.2159-14.45,1.5774-1.5983,3.19-3.1619,4.7917-4.7363,5.0766-4.99,12.3445-4.0921,16.0482,1.98.0568.093.1264.1782.2308.3242a3.0657,3.0657,0,0,0,.9819-2.6466c-.0015-6.48-.0329-12.96.0105-19.4395a9.9359,9.9359,0,0,1,19.6336-2.1592c.0661.2832.1582.56.2382.84V99.0663a4.0213,4.0213,0,0,0-.2036.6091,15.4307,15.4307,0,0,1-3.4406,7.6314c-7.9234,9.3491-15.7773,18.7571-23.694,28.1119a18.6711,18.6711,0,0,1-2.4867,2.0886ZM69.1671,130.88c0-5.0572.0739-9.9522-.032-14.8432a8.7913,8.7913,0,0,0-2.7472-6.1048q-9.0855-9.0323-18.2246-18.0108a3.2747,3.2747,0,0,0-4.753-.0284,3.3176,3.3176,0,0,0,.1258,4.7556c.9162.9572,1.8693,1.8792,2.8063,2.8165,2.7591,2.76,5.535,5.503,8.2719,8.2847a3.2849,3.2849,0,0,1-1.1217,5.5584,3.4061,3.4061,0,0,1-3.7062-1.0264q-8.61-8.6495-17.2628-17.2561a10.7556,10.7556,0,0,1-3.3327-8.11c.0515-6.3686.0267-12.7379.007-19.1069a3.3075,3.3075,0,1,0-6.6114-.0116q-.0207,14.855.0156,29.71a8.04,8.04,0,0,0,1.88,5.2971q11.529,13.6788,23.02,27.39a1.7248,1.7248,0,0,0,1.4849.701c5.7062-.025,11.4127-.0144,17.1191-.0144Zm6.7695-.0461c.1636.0162.3056.0424.4476.0425,6.6268.0025,13.2537.0155,19.88-.0268a1.9141,1.9141,0,0,0,1.2307-.6882c7.6247-9.0266,15.2109-18.0856,22.8424-27.1063A8.1894,8.1894,0,0,0,122.4,97.7133c.0564-10.0135.04-20.0276.0237-30.0414a3.1385,3.1385,0,0,0-2.0352-3.021,3.3063,3.3063,0,0,0-4.5742,3.2815c-.0155,6.3323-.04,12.6649.0091,18.9969a10.7336,10.7336,0,0,1-3.341,8.1081c-4.1973,4.1327-8.34,8.3212-12.5051,12.4861-1.6663,1.6659-3.3048,3.3609-5.0079,4.9882a3.2957,3.2957,0,0,1-5.5741-1.5672,3.3372,3.3372,0,0,1,1.0865-3.2911q5.4783-5.4554,10.93-10.9369a3.3183,3.3183,0,1,0-4.6548-4.7121q-9.0115,8.8719-17.9917,17.7758a8.316,8.316,0,0,0-2.7861,5.6155C75.8446,120.5025,75.9366,125.6153,75.9366,130.8335Z"/><path class="cls-1" d="M61.0145,61.8862a20.5688,20.5688,0,0,1-11.9633-8.681,19.2121,19.2121,0,0,1-3.2453-10.5018,16.0807,16.0807,0,0,0-5.2343-12.192,3.5524,3.5524,0,0,1-1.3361-3.5263A3.1369,3.1369,0,0,1,42.19,24.4285c5.5183.0014,11.081-.3413,16.5455.228,11.7255,1.2214,19.937,7.6242,24.8918,18.2694.1536.33.2959.665.4825,1.0857.2219-.3322.4044-.6.5811-.871a11.4994,11.4994,0,0,1,21.1647,6.0319c.0343,1.6925.0257,3.3863.0067,5.0792a3.337,3.337,0,0,1-3.5605,3.4994c-.9937.0112-1.9895.04-2.9806-.011-.6461-.0329-.8753.21-1.0216.8292-.5747,2.4312-1.1427,4.8683-1.8468,7.264C91.0856,84.0987,68.1241,90.3748,54.1465,77.3866c-2.5061-2.3287-4.87-4.8108-7.2847-7.2371a3.1888,3.1888,0,0,1-.8079-3.74,3.2812,3.2812,0,0,1,3.25-2.0344,30.26,30.26,0,0,0,10.4634-1.95C60.0952,62.3018,60.4119,62.1479,61.0145,61.8862ZM49.5429,31.1167c.1106.2495.1982.48.3113.6977a22.6284,22.6284,0,0,1,2.5489,10.1775A13.6968,13.6968,0,0,0,62.3373,55.35q3.8782,1.2636,7.7556,2.53a3.3192,3.3192,0,0,1,.8685,5.9878,38.1447,38.1447,0,0,1-11,5.5027c-1.1094.3345-2.238.6055-3.7008.9977.9438.8584,1.7044,1.5369,2.4506,2.2309,10.3848,9.6581,27.7793,4.7087,31.479-8.9734.8538-3.1574,1.6075-6.3418,2.4089-9.5134.5429-2.1484,1.6168-2.9784,3.863-2.9863.9055-.0032,1.8111-.0005,2.7775-.0005,0-.4377-.0013-.7275,0-1.0173.0145-2.9611-1.3024-4.8634-3.79-5.4742-2.3636-.58-4.44.5616-5.75,3.1681-1.3037,2.5951-2.5946,5.1967-3.907,7.7874a3.3616,3.3616,0,0,1-3.838,2.0784,3.3965,3.3965,0,0,1-2.6042-3.5063c-.3-8.21-4.0109-14.5242-10.6883-19.1812C62.8755,30.9446,56.3167,30.6957,49.5429,31.1167Z"/></svg>