<svg id="Layer_1" data-name="Layer 1" xmlns="http://www.w3.org/2000/svg" viewBox="0 0 144.9908 161.8349"><defs><style>.cls-1{fill:#8da580;stroke:#1a1a1a;stroke-miterlimit:10;stroke-width:0.5px;}</style></defs><path class="cls-1" d="M101.9288,44.2576s-4.0459-19.0321,2.766-27.9908c0,0,7.101,4.6651,3.7156,27.9908,0,0,.4542-10.1972-3.1789-9.9908S101.9288,44.2576,101.9288,44.2576Z"/><path class="cls-1" d="M34.8529,48.8791s-3.0726-11.9737,2.1007-17.61c0,0,5.3928,2.935,2.8218,17.61,0,0,.3449-6.4154-2.4142-6.2856S34.8529,48.8791,34.8529,48.8791Z"/><path class="cls-1" d="M45.4517,141.331V80.1475a17.3513,17.3513,0,0,1,14.6147-3.3051s1.2385.4152-3.22,1.6537-6.6468,1.8785-7.0183,2.2294-2.312,2.4771,9,2.8073,19.8165.11,22.3761-.0825,7.5964-2.1468,4.2936-3.3854-10.3211-2.234-8.422-3.2225,8.422-1.3187,11.56,1.1583,2.7248,2.89,2.7248,2.89l.0179,60.44s-2.1739,3.7982-22.8528,4.211S45.4517,141.331,45.4517,141.331Z"/><path class="cls-1" d="M38.4517,81.2484V78.1326l2.315-2.0852a24.08,24.08,0,0,1,15.4357-5.5218,25.1857,25.1857,0,0,1,3.9566.3174l-.0051-17.9157s.4128-.4128-2.7249-2.89-9.6606-2.1468-11.56-1.1583,5.1192,1.984,8.4219,3.2225-1.7339,3.1927-4.2934,3.3853S38.9336,55.9,27.6216,55.57s-9.3715-2.4564-9-2.8074,2.56-.9907,7.0183-2.2293,3.22-1.6537,3.22-1.6537a17.3514,17.3514,0,0,0-14.6148,3.3051v61.1835s2.3945,4.6238,23.0735,4.211c.3884-.0078.7573-.0191,1.1328-.0291Z"/><path class="cls-1" d="M114.0665,41.5328s-2.4771,2.4771,7.1008,4.789c0,0,11.0642,3.1376-3.1377,6.11s-28.4036-.66-28.4036-.66-12.22-2.1468,1.156-6.44S88.14,42.3585,88.14,42.3585s-7.5964,2.1468-8.4221,5.45V69.9365a35.6668,35.6668,0,0,1,4.2488.3763,20.552,20.552,0,0,1,5.3975,1.2163c3.6806,1.1824,7.3205,3.2413,8.684,6.8294l.0191,1.1859a7.2712,7.2712,0,0,1,.4084,1.955,7.1962,7.1962,0,0,1-.0053.9244l.0066,22.74.562,35.1209h14.3669s13.7066-.9908,17.34-4.9541V47.808S126.4517,41.5328,114.0665,41.5328Z"/><path class="cls-1" d="M65.8679,77.9433s-3.4659-11.9737,2.37-17.61c0,0,6.0829,2.935,3.1829,17.61,0,0,.389-6.4154-2.7232-6.2855S65.8679,77.9433,65.8679,77.9433Z"/></svg>