<svg id="Layer_1" data-name="Layer 1" xmlns="http://www.w3.org/2000/svg" viewBox="0 0 477.578 457.7615"><defs><style>.cls-1{fill:#fbf8f0;}</style></defs><path class="cls-1" d="M238.9035,342.1538A101.7835,101.7835,0,1,1,340.5687,240.118,101.9147,101.9147,0,0,1,238.9035,342.1538ZM148.977,240.3418a89.8085,89.8085,0,1,0,89.703-89.78A89.7584,89.7584,0,0,0,148.977,240.3418Z"/><path class="cls-1" d="M361.5089,138.6506a14.9514,14.9514,0,1,1-14.7555-15.0226A15.1349,15.1349,0,0,1,361.5089,138.6506Z"/><path class="cls-1" d="M207.68,179.4322c.3847-3.6588,2.3571-5.8809,6.0774-5.7885a5.47,5.47,0,0,1,5.7036,5.6858c.07,3.5989-2.0814,6.0214-5.8086,6.0546C209.9443,185.4172,207.9949,183.1476,207.68,179.4322Z"/><path class="cls-1" d="M269.9049,179.0644c-.2959,4.0386-2.2362,6.3176-5.94,6.32-3.7265.0027-5.9051-2.399-5.8658-6.0007a5.49,5.49,0,0,1,5.6542-5.7427C267.5278,173.4842,269.3563,175.8366,269.9049,179.0644Z"/><path class="cls-1" d="M183.9358,215.1824c-.5049,3.7391-2.5751,6.022-6.2145,5.8666-3.5975-.1535-5.8785-2.4936-5.6584-6.2051.2-3.3821,2.32-5.4549,5.859-5.4727C181.7738,209.3518,183.4727,211.7067,183.9358,215.1824Z"/><path class="cls-1" d="M293.6113,215.5c.4133-3.7018,2.0978-6.0782,5.9269-6.1411,3.5334-.058,5.69,1.99,5.9541,5.3685.29,3.7106-1.9553,6.09-5.5377,6.3185C296.3144,221.2782,294.2569,218.9658,293.6113,215.5Z"/><path class="cls-1" d="M177.9815,271.47c-3.7328-.3212-5.94-2.3109-5.9278-6.0057a5.4349,5.4349,0,0,1,5.6009-5.77c3.5949-.1187,6.0465,2.0131,6.1405,5.7258C183.8891,269.125,181.6382,271.1033,177.9815,271.47Z"/><path class="cls-1" d="M299.6272,271.4864c-3.8251-.5109-6.054-2.52-5.8523-6.2361.2014-3.7144,2.7321-5.766,6.3085-5.5576a5.4329,5.4329,0,0,1,5.449,5.92C305.444,269.3208,303.1046,271.165,299.6272,271.4864Z"/><path class="cls-1" d="M207.6542,301.4188c.4129-3.9,2.3983-6.1413,6.0978-6.0608,3.7312.0811,5.8369,2.54,5.7087,6.1358a5.4493,5.4493,0,0,1-5.7731,5.6035C209.9781,307.1171,208.08,304.8242,207.6542,301.4188Z"/><path class="cls-1" d="M269.8967,301.1054c-.28,3.7748-2.2947,6.008-5.9705,5.9806-3.6991-.0275-5.9046-2.4252-5.8272-6.0441a5.427,5.427,0,0,1,5.68-5.69C267.4744,295.294,269.4952,297.4674,269.8967,301.1054Z"/><path class="cls-1" d="M198.082,194.0346c-.3686,3.5056-2.2961,5.62-6.0752,5.5647-3.5937-.0522-5.5849-2.3192-5.6734-5.6311-.097-3.6309,2.1765-6.0307,5.8264-6.0412C195.754,187.9167,197.91,190.0694,198.082,194.0346Z"/><path class="cls-1" d="M285.119,199.67c-3.5055-.37-5.617-2.2927-5.5636-6.0757.0507-3.5992,2.3171-5.586,5.6266-5.6738,3.6242-.0961,6.0315,2.1584,6.041,5.8216C291.2324,197.3459,289.0755,199.4861,285.119,199.67Z"/><path class="cls-1" d="M192.5892,281.0739c3.4448.44,5.5254,2.4046,5.3984,6.1774-.1206,3.5807-2.4094,5.5359-5.7219,5.5657a5.48,5.48,0,0,1-5.9266-5.9309C186.3924,283.3015,188.58,281.1736,192.5892,281.0739Z"/><path class="cls-1" d="M279.4879,286.6922c.3709-3.4956,2.2813-5.5981,6.0758-5.5385,3.609.0566,5.58,2.3186,5.6669,5.6244a5.4827,5.4827,0,0,1-5.8307,6.0336C281.8046,292.8205,279.6575,290.6607,279.4879,286.6922Z"/><path class="cls-1" d="M238.8184,168.4985c3.6119.5155,5.9584,2.4388,5.8314,6.1684-.1254,3.6837-2.4623,5.86-6.1547,5.7074a5.43,5.43,0,0,1-5.5889-5.7869C232.8771,170.843,235.211,168.9666,238.8184,168.4985Z"/><path class="cls-1" d="M166.9168,240.5016c.3977-3.6294,2.2619-6.0134,5.9923-6.0023,3.6963.0111,5.9119,2.2858,5.8819,5.9818a5.4306,5.4306,0,0,1-5.6169,5.76C169.4482,246.3888,167.4826,244.1055,166.9168,240.5016Z"/><path class="cls-1" d="M298.6135,240.8383c.4029-3.9328,2.2563-6.325,5.9847-6.3387,3.6975-.0135,5.9238,2.249,5.919,5.945-.0045,3.457-2.1534,5.62-5.5812,5.8011C301.1653,246.4452,299.3275,244.0355,298.6135,240.8383Z"/><path class="cls-1" d="M238.9592,300.2261c3.5828.6005,5.8714,2.5632,5.6956,6.2953a5.4318,5.4318,0,0,1-5.7954,5.5816c-3.69.0027-5.958-2.214-5.9456-5.9193C232.9263,302.4454,235.33,300.6118,238.9592,300.2261Z"/><path class="cls-1" d="M238.2881,414.2365q-73.093,0-146.186-.0028c-20.6173-.0036-32.9349-12.272-32.9363-32.8173q-.0106-146.934.0011-293.8679c.002-20.1971,12.4165-32.5583,32.687-32.56q146.934-.0117,293.8679,0c20.2911.0016,32.6847,12.3375,32.6871,32.5616q.0171,147.1835-.0016,294.3668c-.003,19.8743-12.4981,32.308-32.4368,32.3144Q312.1292,414.255,238.2881,414.2365Zm.51-11.975q73.58,0,147.1593-.0041c13.56-.0029,20.4769-6.9727,20.4778-20.6278q.0094-146.91.0008-293.82c-.0006-13.9831-6.8353-20.8466-20.7548-20.8472q-146.91-.0065-293.82,0c-13.92.0007-20.7216,6.8546-20.7221,20.8731q-.0054,146.6606-.0005,293.3211c0,14.3567,6.7083,21.101,20.999,21.1026Q165.4682,402.2677,238.7985,402.2615Z"/></svg>