<svg id="Layer_1" data-name="Layer 1" xmlns="http://www.w3.org/2000/svg" viewBox="0 0 477.578 457.7615"><defs><style>.cls-1{fill:#fbf8f0;}</style></defs><path class="cls-1" d="M238.2881,414.2365q-73.093,0-146.186-.0028c-20.6173-.0036-32.9349-12.272-32.9363-32.8173q-.0106-146.934.0011-293.8679c.002-20.1971,12.4165-32.5583,32.687-32.56q146.934-.0117,293.8679,0c20.2911.0016,32.6847,12.3375,32.6871,32.5616q.0171,147.1835-.0016,294.3668c-.003,19.8743-12.4981,32.308-32.4368,32.3144Q312.1292,414.255,238.2881,414.2365Zm.51-11.975q73.58,0,147.1593-.0041c13.56-.0029,20.4769-6.9727,20.4778-20.6278q.0094-146.91.0008-293.82c-.0006-13.9831-6.8353-20.8466-20.7548-20.8472q-146.91-.0065-293.82,0c-13.92.0007-20.7216,6.8546-20.7221,20.8731q-.0054,146.6606-.0005,293.3211c0,14.3567,6.7083,21.101,20.999,21.1026Q165.4682,402.2677,238.7985,402.2615Z"/><path class="cls-1" d="M366.7331,356.1757l-5.2722-4.598c-.2419,3.9991-.4427,7.3188-.6638,10.9724H303.6242c0-2.0358,0-3.8335,0-5.6312-.007-27.7617.0293-55.5236-.0614-83.285-.0162-4.975-.3812-9.9662-.8884-14.919-1.7012-16.6127-10.5819-23.0438-26.9746-19.8123-7.8417,1.5458-13.1081,6.2991-14.772,13.79a119.34,119.34,0,0,0-2.9574,24.1045c-.3555,26.5933-.1341,53.1943-.1342,79.7924v5.8822H194.8224V185.5707h60.9068v11.7387c3.8828-2.6837,7.0313-5.3291,10.5773-7.2353,24.97-13.4231,49.9516-12.3224,73.9483,1.8866,15.22,9.012,21.554,24.5141,24.1342,41.2576a238.1769,238.1769,0,0,1,2.5666,33.2439c.3488,28.2561.1244,56.5195.11,84.78C367.0646,352.666,366.879,354.09,366.7331,356.1757Zm-120.872-5.5524c0-2.1109-.0021-3.9148,0-5.7187.0333-24.9459-.037-49.8926.1557-74.8372.0709-9.1807,1.3189-18.24,5.6708-26.5646,6.463-12.3636,19.9263-18.6448,36.0232-16.8241,12.9527,1.4651,22.8058,10.401,25.7149,24.2412a101.4678,101.4678,0,0,1,2.0584,19.7769c.2393,24.7777.1075,49.559.1148,74.3389,0,1.7842,0,3.5684,0,5.4924h39.22c.1132-1.5289.2708-2.67.2713-3.81.01-26.9419.2352-53.8869-.1172-80.8242a208.3311,208.3311,0,0,0-2.59-31.2531c-3.2455-19.5728-12.5743-34.711-33.4568-39.4422a86.6426,86.6426,0,0,0-18.2768-2.0842c-17.8184-.1514-32.9355,5.7972-43.313,21.066-4.1922,6.1681-5.3456,6.7446-13.6049,4.7038v-21.47H206.8758V350.6233Z"/><path class="cls-1" d="M111.0993,185.4859h62.576V362.5888h-62.576Zm50.5978,165.1215V197.4679H123.0779v153.14Z"/><path class="cls-1" d="M178.111,138.4556a35.7969,35.7969,0,1,1-35.94-35.5975A35.9581,35.9581,0,0,1,178.111,138.4556Zm-11.9756.1623a23.822,23.822,0,0,0-47.6431-.1773,23.8231,23.8231,0,1,0,47.6431.1773Z"/><path class="cls-1" d="M215.0372,102.8665c3.5792.6156,5.8956,2.5924,5.6637,6.3174-.228,3.663-2.6083,5.8066-6.3048,5.5486a5.4342,5.4342,0,0,1-5.4374-5.9329C209.0331,105.06,211.405,103.235,215.0372,102.8665Z"/><path class="cls-1" d="M232.7814,108.8983c.4589-3.6139,2.359-5.9705,6.09-5.8959,3.6925.0739,5.8817,2.3825,5.7845,6.0772a5.4317,5.4317,0,0,1-5.712,5.6664C235.2171,114.8253,233.2824,112.5239,232.7814,108.8983Z"/><path class="cls-1" d="M256.733,108.6974c.5848-3.5864,2.5512-5.8655,6.2823-5.6995a5.428,5.428,0,0,1,5.5924,5.7824c.0125,3.6951-2.215,5.9656-5.9083,5.9586C258.9762,114.7318,257.1114,112.3428,256.733,108.6974Z"/><path class="cls-1" d="M280.6482,108.9722c.5884-3.8213,2.5389-6.1091,6.2714-5.9752a5.4279,5.4279,0,0,1,5.6378,5.7374c.0447,3.6956-2.17,5.9782-5.8619,6.0062C282.9615,114.769,281.16,112.3178,280.6482,108.9722Z"/><path class="cls-1" d="M304.6355,108.6527c.61-3.577,2.59-5.8482,6.32-5.654a5.4309,5.4309,0,0,1,5.5534,5.8217c-.0141,3.6967-2.2576,5.9514-5.9495,5.918C306.84,114.7048,304.9841,112.3079,304.6355,108.6527Z"/><path class="cls-1" d="M334.4994,102.8634c3.6114.4368,5.9973,2.3063,5.9557,6.039-.0412,3.6925-2.3339,5.9013-6.0273,5.8391a5.4281,5.4281,0,0,1-5.7157-5.66C328.5926,105.3389,330.8958,103.4142,334.4994,102.8634Z"/><path class="cls-1" d="M358.3389,102.83c3.8451.5485,6.1919,2.4728,6.0649,6.2016-.1255,3.6827-2.4626,5.86-6.1554,5.7074a5.4325,5.4325,0,0,1-5.59-5.787C352.6257,105.2,355.03,103.396,358.3389,102.83Z"/></svg>