<svg id="Layer_1" data-name="Layer 1" xmlns="http://www.w3.org/2000/svg" viewBox="0 0 434.2414 244.2608"><defs><style>.cls-1{fill:#8da580;}</style></defs><path class="cls-1" d="M69.53,99.7969V74.48h6.3379q6.3033,0,9.5869,3.1426t3.2832,9.1631a12.8949,12.8949,0,0,1-3.5214,9.4014q-3.523,3.6108-9.72,3.61ZM71.2775,76.086V98.208H75.25q5.6323,0,8.6513-2.9218T86.92,86.8555q0-10.77-11.3164-10.77Z"/><path class="cls-1" d="M109.5187,99.7969l-2.8955-7.874H95.6418l-2.8955,7.874H90.8224L100.3732,74.48h1.66l9.4453,25.3174ZM101.7511,78.61a9.3518,9.3518,0,0,1-.3183-1.041c-.082-.295-.1709-.5889-.2647-.8828h-.07a17.06,17.06,0,0,1-.583,1.8886L96.26,90.3164h9.7637Z"/><path class="cls-1" d="M133.672,99.7969,118.5939,79.334a12.1312,12.1312,0,0,1-.8115-1.2353l-.23-.3535h-.0713q.0353.46.0352,1.1123V99.7969H115.77V74.48h1.3418l14.9707,20.2852q.4951.6723,1.0771,1.625h.0889q-.0894-1.2363-.0889-2.1192V74.48h1.7481V99.7969Z"/><path class="cls-1" d="M140.61,98.8965V96.9014a10.1655,10.1655,0,0,0,5.5088,1.7305,7.0894,7.0894,0,0,0,4.502-1.2276,4.1466,4.1466,0,0,0,1.5361-3.4336,4.4807,4.4807,0,0,0-1.0332-3.0986,20.3937,20.3937,0,0,0-4.4756-3.1514q-3.85-2.2411-4.873-3.7519a6.06,6.06,0,0,1-1.0235-3.4863,5.9,5.9,0,0,1,2.0831-4.5557,8.0106,8.0106,0,0,1,5.5615-1.8711,14.127,14.127,0,0,1,4.5195.7588V76.65a11.39,11.39,0,0,0-4.749-1.0058,6.0341,6.0341,0,0,0-4.0879,1.3066,4.1986,4.1986,0,0,0-1.5088,3.3193,4.443,4.443,0,0,0,1.0322,3.0889,20.3456,20.3456,0,0,0,4.458,3.125,15.9261,15.9261,0,0,1,4.7227,3.5752,5.8215,5.8215,0,0,1,1.1748,3.5938,6.1222,6.1222,0,0,1-2.0215,4.749,8.2006,8.2006,0,0,1-5.7119,1.8359,13.187,13.187,0,0,1-3.01-.4062A9.73,9.73,0,0,1,140.61,98.8965Z"/><path class="cls-1" d="M172.4074,99.7969,161.62,87.6856a2.7675,2.7675,0,0,1-.4238-.583h-.0713V99.7969h-1.7471V74.48h1.7471V86.4141h.0713a2.8915,2.8915,0,0,1,.4589-.6182l10.24-11.3164h2.2773L163.0676,86.75l11.7939,13.0469Z"/><path class="cls-1" d="M209.3136,164.7676v10.3281h9.3575v1.5889h-9.3575v11.7939h-1.747V163.1612h11.8281v1.6064Z"/><path class="cls-1" d="M234.79,188.92a10.8988,10.8988,0,0,1-8.5537-3.5665,13.3819,13.3819,0,0,1-3.1865-9.2685q0-6.0557,3.2744-9.7022a11.4161,11.4161,0,0,1,8.9424-3.6455,10.6465,10.6465,0,0,1,8.289,3.5049,13.1722,13.1722,0,0,1,3.169,9.19q0,6.2856-3.2481,9.8867A11.1233,11.1233,0,0,1,234.79,188.92Zm.1768-24.5938a9.3089,9.3089,0,0,0-7.2657,3.1953,12.1014,12.1014,0,0,0-2.8505,8.3692,12.2234,12.2234,0,0,0,2.7011,8.3242,9.0811,9.0811,0,0,0,7.2032,3.0986,9.4638,9.4638,0,0,0,7.4326-3.0635q2.7363-3.063,2.7363-8.5361,0-5.3672-2.6748-8.3779A9.2482,9.2482,0,0,0,234.967,164.3262Z"/><path class="cls-1" d="M264.8566,188.4785l-3.3721-7.415a8.0547,8.0547,0,0,0-2.083-3.081,4.2179,4.2179,0,0,0-2.6132-.7852h-3.1426v11.2812h-1.7471V163.1612h7.0264a7.3691,7.3691,0,0,1,5.27,1.8095,6.2648,6.2648,0,0,1,1.915,4.7754,6.7859,6.7859,0,0,1-1.5713,4.5733,7.3444,7.3444,0,0,1-4.3965,2.3652v.0713q1.5015.5991,2.9317,3.6543l3.76,8.0683Zm-11.2109-23.7109v10.84h4.3613a6.6616,6.6616,0,0,0,4.5986-1.5176,5.2973,5.2973,0,0,0,1.7041-4.167,4.8093,4.8093,0,0,0-1.5361-3.7871,6.3954,6.3954,0,0,0-4.3955-1.3682Z"/><path class="cls-1" d="M271.9728,188.4785V163.1612h11.8281v1.6064H273.72V174.919h9.3574v1.5888H273.72V186.89H284.384v1.5888Z"/><path class="cls-1" d="M307.9543,188.4785l-15.0782-20.4628a12.1434,12.1434,0,0,1-.8115-1.2354l-.2295-.3535h-.0713q.0353.46.0352,1.1123v20.9394h-1.7471V163.1612h1.3418l14.9707,20.2851q.4952.6724,1.0772,1.625h.0888q-.0892-1.2363-.0888-2.1191v-19.791h1.748v25.3173Z"/><path class="cls-1" d="M315.6867,188.4785V163.1612h1.7471v25.3173Z"/><path class="cls-1" d="M341.8342,188.4785,326.756,168.0157a12.1434,12.1434,0,0,1-.8115-1.2354l-.23-.3535h-.0713q.0352.46.0352,1.1123v20.9394h-1.7471V163.1612h1.3418l14.9707,20.2851q.4952.6724,1.0772,1.625h.0888q-.0892-1.2363-.0888-2.1191v-19.791h1.748v25.3173Z"/><path class="cls-1" d="M367.8752,186.7129a16.2416,16.2416,0,0,1-8.0684,2.2071,10.7766,10.7766,0,0,1-8.3682-3.5137,13.1636,13.1636,0,0,1-3.1953-9.2158,13.8757,13.8757,0,0,1,3.4424-9.6045,11.7335,11.7335,0,0,1,9.1983-3.8487,16.344,16.344,0,0,1,6.4794,1.3418v1.9063a15.4389,15.4389,0,0,0-6.7265-1.6592,9.7861,9.7861,0,0,0-7.6885,3.2666,12.0713,12.0713,0,0,0-2.9043,8.333q0,5.3321,2.7276,8.3594a9.4056,9.4056,0,0,0,7.3535,3.0283,11.82,11.82,0,0,0,6.0029-1.4834V177.48H360.16v-1.5888h7.7149Z"/><path class="cls-1" d="M70.5285,152.502a40.4932,40.4932,0,0,1-13.7236,2.1367,27.922,27.922,0,0,1-13.19-2.9219,19.9926,19.9926,0,0,1-8.4639-8.3144A25.694,25.694,0,0,1,32.23,130.9649a27.371,27.371,0,0,1,3.2724-13.49,22.6228,22.6228,0,0,1,9.249-9.1328A28.5428,28.5428,0,0,1,58.508,105.12a47.8448,47.8448,0,0,1,12.02,1.5019v13.3232a16.977,16.977,0,0,0-4.7744-1.87,23.9222,23.9222,0,0,0-5.61-.6679q-5.8769,0-9.2656,3.373T47.4894,129.93q0,5.7422,3.3887,9.0655a12.3893,12.3893,0,0,0,9.0654,3.3222,23.5144,23.5144,0,0,0,10.585-2.6719Z"/><path class="cls-1" d="M107.9933,153.8037l-2.1035-8.8154H91.5988l-2.2715,8.8154H73.7345L90.23,105.9209h17.8974l15.5264,47.8828Zm-9.082-37.4648h-.334a23.278,23.278,0,0,1-.4678,2.6387q-.4013,1.8354-4.04,15.76h9.1484l-3.3388-13.0224A41.2045,41.2045,0,0,1,98.9113,116.3389Z"/><path class="cls-1" d="M162.7209,153.8037l-16.8965-23.1064a55.1873,55.1873,0,0,1-3.2715-4.9414h-.1338q.2007,3.5391.2,7.9463v20.1015H129.2629V105.9209h13.624l16.1943,21.9717q.3.4337.7344,1.0352t.8682,1.2353q.4335.6344.8183,1.2354a7.7245,7.7245,0,0,1,.584,1.0683h.1338a43.3454,43.3454,0,0,1-.2-5.0752V105.9209h13.3564v47.8828Z"/><path class="cls-1" d="M218.25,153.8037l-16.8965-23.1064a55.1873,55.1873,0,0,1-3.2715-4.9414h-.1338q.2007,3.5391.2,7.9463v20.1015H184.7922V105.9209h13.624l16.1943,21.9717q.3.4337.7344,1.0352t.8682,1.2353q.4335.6344.8183,1.2354a7.7245,7.7245,0,0,1,.584,1.0683h.1338a43.3454,43.3454,0,0,1-.2-5.0752V105.9209h13.3564v47.8828Z"/><path class="cls-1" d="M270.34,153.8037l-2.1035-8.8154h-14.291l-2.2715,8.8154H236.0812l16.4951-47.8828h17.8975L286,153.8037Zm-9.082-37.4648h-.334a23.278,23.278,0,0,1-.4678,2.6387q-.4014,1.8354-4.04,15.76h9.1484l-3.3388-13.0224A41.2045,41.2045,0,0,1,261.258,116.3389Z"/><path class="cls-1" d="M332.5138,139.1114q0,7.0458-4.9423,10.8691t-14.1241,3.8232H291.61V105.9209h20.335q19.0664,0,19.0664,11.5869a9.0282,9.0282,0,0,1-1.2021,4.5909,10.8253,10.8253,0,0,1-3.6563,3.6572,15.2988,15.2988,0,0,1-5.3926,2.1367v.1338a15.1991,15.1991,0,0,1,6.11,2.0195,11.94,11.94,0,0,1,4.1738,4.04A9.5562,9.5562,0,0,1,332.5138,139.1114Zm-16.8291-19.1q0-4.44-6.9785-4.44h-2.6719V124.62h4.1739a5.9359,5.9359,0,0,0,3.94-1.2852A4.1354,4.1354,0,0,0,315.6847,120.0118Zm1.502,19.0332a4.3579,4.3579,0,0,0-1.502-3.4063,5.7647,5.7647,0,0,0-3.9736-1.335h-5.6768v9.7832h4.8086a7.2711,7.2711,0,0,0,4.6416-1.3525A4.4576,4.4576,0,0,0,317.1867,139.045Z"/><path class="cls-1" d="M338.8576,153.8037V105.9209h14.4248v47.8828Z"/><path class="cls-1" d="M395.9562,139.3125a13.8227,13.8227,0,0,1-2.5547,8.3135,15.1363,15.1363,0,0,1-7.1621,5.2764,31.511,31.511,0,0,1-11.0859,1.7363,36.1946,36.1946,0,0,1-13.7568-2.5381V138.9785a27.1616,27.1616,0,0,0,6.6445,3.5557,19.5455,19.5455,0,0,0,6.7783,1.3526,6.694,6.694,0,0,0,3.6729-.8516,2.7863,2.7863,0,0,0,1.3027-2.4873,3.3753,3.3753,0,0,0-.6514-2.0537,6.4039,6.4039,0,0,0-1.9707-1.6533,36.7288,36.7288,0,0,0-4.8916-2.1036q-11.5532-4.44-11.5527-14.3574a13.4153,13.4153,0,0,1,5.2754-11.1025q5.2764-4.1573,14.1582-4.1572,2.5034,0,4.6074.2t3.8232.501q1.72.3,4.8252,1.1348v12.1875a24.6653,24.6653,0,0,0-11.8867-3.3057,7.3311,7.3311,0,0,0-3.874.9024,2.7734,2.7734,0,0,0-1.4688,2.4707,3.095,3.095,0,0,0,1.1856,2.4873,22.1451,22.1451,0,0,0,4.958,2.5547q7.4459,3.0044,10.5352,6.5781A12.5482,12.5482,0,0,1,395.9562,139.3125Z"/><path class="cls-1" d="M338.3464,66.8013v12.06l-10.4445,6.03-10.4446-6.03v-12.06l10.4446-6.03Zm-.6171,11.7041V67.1576l-9.8274-5.674-9.8275,5.674V78.5054l9.8275,5.6739Z"/><path class="cls-1" d="M348.4844,84.43V96.49L338.04,102.52l-10.4446-6.03V84.43L338.04,78.4Zm-.617,11.7041V84.7859L338.04,79.112l-9.8275,5.6739V96.1338l9.8275,5.6738Z"/><path class="cls-1" d="M368.7565,84.43V96.49l-10.4446,6.03-10.4445-6.03V84.43l10.4445-6.03Zm-.6171,11.7041V84.7859l-9.8275-5.6739-9.8275,5.6739V96.1338l9.8275,5.6738Z"/><polygon class="cls-1" points="397.461 102.218 387.574 96.297 377.579 102.217 377.419 102.122 368.139 96.615 368.459 96.077 377.579 101.49 387.576 95.569 397.461 101.489 407.347 95.568 414.53 99.906 414.207 100.441 407.346 96.298 397.461 102.218"/></svg>