<svg id="Layer_1" data-name="Layer 1" xmlns="http://www.w3.org/2000/svg" viewBox="0 0 144.9908 161.8349"><defs><style>.cls-1{fill:#8da580;stroke:#1a1a1a;stroke-miterlimit:10;stroke-width:0.5px;}</style></defs><path class="cls-1" d="M14.823,96.917V90.8285a10.7051,10.7051,0,0,0,.2044-1.0948,42.8448,42.8448,0,0,1,3.5178-13.6672,44.3538,44.3538,0,0,1,15.139-18.6529,44.5538,44.5538,0,0,1,51.129-.5006c1.3254.9046,2.5858,1.9045,3.99,2.9448,1.4866-1.51,2.9321-3.0319,4.443-4.4856a1.4169,1.4169,0,0,0,.4369-1.7415c-.92-2.5771-1.7258-5.1951-2.6447-7.7727A1.4453,1.4453,0,0,1,91.463,44.1q10.0287-9.9708,20.0082-19.9911c.2828-.2833.5131-.619.7679-.93h.2255c1.359,4.13,2.7372,8.2546,4.06,12.3965a1.9182,1.9182,0,0,0,1.42,1.3731c3.6785,1.1832,7.34,2.4194,11.005,3.6438.4005.1338.7861.3119,1.2187.4855-.142.1824-.2014.2782-.279.3558Q119.5271,51.8,109.14,62.1405a1.5912,1.5912,0,0,1-1.3377.2771c-2.7222-.8449-5.4146-1.7857-8.1287-2.6581-.3374-.1085-.8953-.1524-1.0981.04-1.6837,1.5988-3.3079,3.26-4.9725,4.9252.85,1.0935,1.6667,2.0756,2.4055,3.1133a33.36,33.36,0,0,1,2.1549,3.3c8.457,15.4729,8.6117,30.983-.5449,46.1273-7.2834,12.0461-18.26,18.9712-32.207,20.9368a42.7536,42.7536,0,0,1-30.8453-7.3014c-10.6841-7.2691-17.0112-17.47-19.2267-30.2055C15.1213,99.4442,14.9929,98.177,14.823,96.917ZM83.6646,64.714c-14.2041-12.1766-36.9937-11.9814-51.2991,2.87a37.84,37.84,0,1,0,56.4026,50.3747c13.1612-15.8545,10.0374-37.0287-.0849-48.1153l-9.6364,9.6392a24.1371,24.1371,0,0,1-36.5545,31.3331A24.1339,24.1339,0,0,1,73.9538,74.4106ZM68.9774,79.5386a17.1565,17.1565,0,1,0,2.5938,26.6569c6.74-6.4666,6.3728-16.2721,2.3359-21.6484a.64.64,0,0,0-.1986.09c-2.2366,2.2255-4.46,4.464-6.7117,6.6744a1.703,1.703,0,0,0-.59,1.6429A6.8693,6.8693,0,1,1,52.74,94.2668c-.2882-3.6985,2.7127-7.3134,6.4674-7.1616a5.1551,5.1551,0,0,0,4.3308-2.0417c1.5309-1.6016,3.1268-3.1411,4.6907-4.7112C68.4864,80.0937,68.724,79.8151,68.9774,79.5386Zm40.4215-43.6138c-3.5543,3.56-6.9567,6.9521-10.3237,10.3787a1.2851,1.2851,0,0,0-.212,1.0693c.454,1.546.9338,3.09,1.53,4.5852a2.3107,2.3107,0,0,0,1.1748,1.1345c1.3157.5384,2.7074.8882,4.0361,1.3984a1.5668,1.5668,0,0,0,1.9589-.4417c2.9859-3.0684,6.0375-6.0728,9.0631-9.1027.2586-.2589.4979-.5371.8385-.9065-1.7727-.5931-3.4185-1.1775-5.0875-1.6856a1.6677,1.6677,0,0,1-1.2652-1.2371C110.6083,39.4384,110.0191,37.7852,109.3989,35.9248Z"/></svg>