<svg id="Layer_1" data-name="Layer 1" xmlns="http://www.w3.org/2000/svg" viewBox="0 0 102.8257 82.3486"><defs><style>.cls-1{fill:#8da580;}.cls-2{fill:#f9f9f9;}.cls-3{fill:#ebdfc0;}.cls-4{fill:#989898;}.cls-5{fill:#e97552;}.cls-6{fill:#b6b1a6;}.cls-7{fill:#b9b4a8;}.cls-8{fill:#f9f8f7;}.cls-9{fill:#f9f8f8;}</style></defs><path class="cls-1" d="M75.1878,14.6641c-.5708,0-1.1415-.0017-1.7123,0-2.1163.0076-2.8988.5843-2.8529,2.1.0442,1.459.874,2.0343,2.9534,2.0351,5.07.0021,10.14.03,15.21-.0174,1.4618-.0135,2.302.3637,2.2462,2.02-.0625,1.8547-.2931,2.1415-2.2657,2.1507-1.4394.0067-2.8788.0013-4.5855.0013a32.5347,32.5347,0,0,1,5.1729,22.799A30.6944,30.6944,0,0,1,78.1,66.0023c-11.5355,9.5574-27.068,8.99-36.4,2.9238,1.0174,0,1.8578.0009,2.6982,0,2.2007-.0027,3.06-.6016,3.0423-2.1193-.017-1.4536-.8352-2.0154-2.9554-2.0163q-12.2717-.0051-24.5433-.0086c-1.9411-.0017-2.1959-.3173-2.2443-2.17-.04-1.5192.66-2.0023,2.0954-1.9944,6.51.036,13.0207-.0077,19.5308.0294,1.33.0076,2.0767-.4833,2.2344-1.8138.2023-1.707-.3253-2.3268-2.0587-2.3356-2.9958-.0151-5.9928-.049-8.9871.0216a1.6865,1.6865,0,0,1-1.789-1.1576A32.2985,32.2985,0,0,1,25.6236,44.29a31.2064,31.2064,0,0,1,4.9229-20.6258,30.4431,30.4431,0,0,1,15.2425-12.42,32.193,32.193,0,0,1,27.531,1.829c.6839.365,1.3155.8281,1.9714,1.2455Z"/><path class="cls-1" d="M84.9186,14.6629c-.9785,0-1.959-.04-2.935.01-1.4222.0727-1.8663-.97-1.8361-1.9668.03-.9787.1692-2.2529,1.7848-2.2086,2.013.0552,4.0287.0168,6.0432.012,1.41-.0033,1.6755.8587,1.6714,2.0508-.0039,1.163-.1913,2.0883-1.62,2.1C86.9908,14.6693,85.9547,14.6623,84.9186,14.6629Z"/><path class="cls-1" d="M11.8366,53.7646c-.3218-1.7165,1.1169-2.5785,2.5745-2.7588A3.1136,3.1136,0,0,1,17.36,53.7992a2.638,2.638,0,0,1-2.6824,2.6878C12.6114,56.5062,11.8466,55.7733,11.8366,53.7646Z"/><path class="cls-2" d="M73.0344,35.7552c1.953-1.7127,1.9735-1.7327,3.905.2386,2.4108,2.46,4.774,4.9673,7.1774,7.4351C85.184,44.5247,85.9341,45.7,85.27,47.2811a4.2759,4.2759,0,0,1-3.8558,2.9822c-3.88.2131-7.7579.4776-11.64.62-1.3341.049-1.6406.6287-1.5978,1.8265.08,2.2433.0046,4.4919.08,6.7354.0321.9471-.2154,1.5345-1.1826,1.7627a33.6653,33.6653,0,0,1-17.5346-.1207,2.1893,2.1893,0,0,1-1.7741-2.5282c.13-2.0078.0279-4.0295.0826-6.0437.0277-1.0183-.21-1.4285-1.3886-1.6207-3.2536-.5307-6.5391-.0731-9.7961-.5748a4.6132,4.6132,0,0,1-3.8188-2.7869,3.5779,3.5779,0,0,1,.811-4.1245c2.3575-2.665,4.6385-5.4,7.0521-8.0125,1.944-2.1044,2.0751-2.0414,3.967.1064a7.392,7.392,0,0,1,1.1518,4.0707,4.5737,4.5737,0,0,1-1.5478,2.977c-.2638.2823-.7223.5652-.5718.983.1953.5422.7847.3529,1.2089.36,2.6379.041,5.2766-.0124,7.9147.035a3.0334,3.0334,0,0,1,1.0129.172,1.97,1.97,0,0,1,.8461.8287c1.9334,2.9038,4.72,2.9853,6.824.2035a3.003,3.003,0,0,1,.9388-.9943c2.3855-.4914,4.7989-.1259,7.1976-.2286.8586-.0368,1.7207.0135,2.58-.0154.4406-.0148,1.0277.1537,1.255-.3169.2377-.4921-.3405-.7826-.5829-1.14a4.8377,4.8377,0,0,1-1.015-2.5171A9.3143,9.3143,0,0,1,73.0344,35.7552Z"/><path class="cls-3" d="M62.3485,44.3167c-1.0368,2.5323-1.9455,3.2124-4.2717,3.1974-2.348-.0151-3.0117-.5309-4.0761-3.1671-.5889-1.74-.8087-3.7411-3.0241-4.3438a11.7228,11.7228,0,0,0-5.54-.4581l-.7617-4.0427c.66-.3768.8226-1.08,1.1034-1.7009a8.5841,8.5841,0,0,1,4.4306-4.621,15.8025,15.8025,0,0,0,2.0577-2.0716,3.114,3.114,0,0,1,3.9749-1.0711,6.6192,6.6192,0,0,0,4.7142.31,4.291,4.291,0,0,1,5.4134,1.744c.29.4194.7427.7155,1.0689,1.1184a9.22,9.22,0,0,1,4.3557,4.78,3.1754,3.1754,0,0,0,1.2412,1.765c.24,1.4555-.7866,2.6848-.734,4.1068-2.2-1.373-4.3606-.4234-6.2658.4924C64.431,41.1252,62.7428,42.2284,62.3485,44.3167Z"/><path class="cls-4" d="M67.4375,29.21c-.8963.0775-1.3257-.52-1.7456-1.1705a2.9846,2.9846,0,0,0-3.8354-1.3987,7.7307,7.7307,0,0,1-5.8808-.2127c-1.5462-.7022-2.6644-.1278-3.5422,1.1636-.549.8077-1.0035,1.73-2.2251,1.5889-.081-2.8825-.2086-5.7542,1.9532-8.1275.5712-.6271.9616-1.1689,1.7923-.4746.044.0367.1014.1056.1374.0969,2.0949-.5056,4.2148.1236,6.3122-.1489.155-.02.343-.2864.431-.2474,1.4228.6308,3.1386.1736,4.3816.7387,1.5771.7171,2.13,2.63,2.26,4.4025C67.5681,26.6756,67.4576,27.9461,67.4375,29.21Z"/><path class="cls-1" d="M62.3485,44.3167c-.2847-1.4278.5-2.1147,1.5154-3.0652,1.8706-1.7508,4.1128-2.0219,6.3632-2.5367a1.5579,1.5579,0,0,1,2.0736,1.1479,4.3622,4.3622,0,0,0,1.5547,2.9554c.3207.3514,1.056.52.7345,1.1629-.274.5482-.9155.3346-1.4145.3353Q67.7619,44.3238,62.3485,44.3167Z"/><path class="cls-1" d="M45.4361,39.5451c.2449-.2973.371-.7663.8651-.7337,2.1576.1426,4.3318.2151,6.2357,1.4612,1.5206.9953,1.7063,2.4542,1.4639,4.0745-3.2756-.02-6.5511-.035-9.8265-.0655-.4419-.0041-1.0368.1892-1.2654-.2888-.2533-.53.2193-.9615.5524-1.3366C44.29,41.7235,45.4017,40.9794,45.4361,39.5451Z"/><path class="cls-5" d="M63.6817,29.517c2.9819.7748,4.1938,2.0276,4.2384,4.3812a4.3653,4.3653,0,0,1-3.2651,4.4852,4.4869,4.4869,0,0,1-5.1519-2.46c-.2263-.4107-.1779-1.115-.8856-1.122-.5793-.0058-.6534.5141-.8664.9216-1.1387,2.178-3.1492,3.2039-5.1957,2.6942a4.4555,4.4555,0,0,1-3.3776-4.2552c-.0353-2.3963,1.1876-3.8294,3.8513-4.5076.2216-.0565.4494-.0883.6743-.1316.0951-.1682.1893-.16.2827.0014a5.1877,5.1877,0,0,1,3.0558,1.7283,1.7677,1.7677,0,0,0,2.8219.1728,7.2217,7.2217,0,0,1,3.18-1.8914A.4067.4067,0,0,1,63.6817,29.517Z"/><path class="cls-6" d="M53.9861,29.524l-.1418.0167-.1412-.018c.9743-1.4338,1.7126-1.35,3.2407.7181C55.799,29.5116,54.9978,28.6763,53.9861,29.524Z"/><path class="cls-7" d="M63.6817,29.517l-.6387.0166c-.7689-.6718-1.5366-.2986-2.48.2706C61.6624,28.13,62.2261,28.126,63.6817,29.517Z"/><path class="cls-8" d="M53.6254,36.7708a2.7179,2.7179,0,1,1,.0324-5.4357,2.718,2.718,0,0,1-.0324,5.4357Z"/><path class="cls-9" d="M63.6191,36.7642a2.708,2.708,0,1,1-.0248-5.4159A2.8632,2.8632,0,0,1,66.3,33.9632,2.8285,2.8285,0,0,1,63.6191,36.7642Z"/></svg>