<?xml version="1.0" encoding="UTF-8"?><svg id="a" xmlns="http://www.w3.org/2000/svg" viewBox="0 0 477.578 457.7615"><defs><style>.b{fill:#fbf8f0;}</style></defs><path class="b" d="M238.2881,414.2365c-48.7287,0-97.4573-.0009-146.186-.0028-20.6173-.0036-32.9349-12.272-32.9363-32.8173-.0071-97.956-.0067-195.912,.0011-293.8679,.002-20.1971,12.4165-32.5583,32.687-32.56,97.956-.0078,195.912-.0078,293.8679,0,20.2911,.0016,32.6847,12.3375,32.6871,32.5616,.0114,98.1223,.0109,196.2446-.0016,294.3668-.003,19.8743-12.4981,32.308-32.4368,32.3144-49.2275,.0158-98.455,.0175-147.6824,.0052Zm.51-11.975c49.0533,0,98.1064-.0014,147.1593-.0041,13.56-.0029,20.4769-6.9727,20.4778-20.6278,.0063-97.94,.0065-195.88,.0008-293.82-.0006-13.9831-6.8353-20.8466-20.7548-20.8472-97.94-.0043-195.88-.0043-293.82,0-13.92,.0007-20.7216,6.8546-20.7221,20.8731-.0036,97.7737-.0038,195.5474-.0005,293.3211,0,14.3567,6.7083,21.101,20.999,21.1026,48.8871,.0057,97.774,.0064,146.6609,.0023h-.0004Z"/><path class="b" d="M240.8815,343.2745c-22.048,.063-41.9528-3.5469-60.9903-11.3431-11.521-4.7181-22.0504-11.1798-31.4758-19.4155-10.7378-9.3824-18.8685-20.5072-23.5052-34.0661-2.8922-8.4576-3.6633-17.178-3.0993-26.0475,.1462-2.2993,.2753-4.6176,.9807-6.8313,.3505-1.0998-.3949-1.3453-1.0608-1.7751-5.9554-3.8438-10.7585-8.765-13.3981-15.4205-7.478-18.8546,5.2376-40.4685,27.8875-40.1241,5.2737,.0802,10.1334,1.7373,14.7431,4.1885,2.1431,1.1395,4.2695,2.317,6.3444,3.5747,.8189,.4965,1.3863,.4128,2.125-.1073,12.8199-9.0263,27.0475-14.975,42.1464-18.8556,9.7729-2.5118,19.7253-4.0903,29.8565-4.2583,.8478-.0141,1.693-.148,2.5411-.19,3.4872-.1727,3.4753-.1714,4.5035-3.4162,5.2564-16.5881,10.5101-33.1771,15.7872-49.7586,1.2054-3.7875,4.3836-5.5612,8.191-4.7486,15.1237,3.2275,30.2547,6.4204,45.3731,9.6722,1.1999,.2581,1.8937-.0805,2.6294-.9895,4.8705-6.0185,11.1215-9.0353,18.9423-8.5315,10.2464,.66,18.4537,7.6264,20.5192,17.4132,2.3464,11.1179-5.4992,22.8531-16.5485,25.5281-12.6935,3.0731-25.8433-5.2791-27.9398-17.869-.1743-1.0469-.8094-1.4024-1.7034-1.5915-10.265-2.1707-20.5293-4.3447-30.7936-6.5184-1.835-.3886-3.7182-.6318-5.4887-1.2162-1.4201-.4687-1.9456-.0558-2.3575,1.2433-2.3088,7.2837-4.677,14.5486-7.015,21.8231-2.0047,6.2376-3.9512,12.4945-6.0261,18.7085-.4939,1.4793-.0783,1.7805,1.3077,1.8565,18.033,.9879,35.2036,5.3874,51.489,13.19,5.0391,2.4143,9.9066,5.1494,14.5118,8.3308,.708,.4891,1.2785,.9197,2.2107,.1087,10.1358-8.8173,21.5562-9.8961,33.3983-4.4606,8.7815,4.0307,14.0885,11.399,15.8583,20.9637,2.5594,13.8313-3.7638,23.6594-14.6551,31.2284-1.0718,.7448-1.3852,1.3596-1.1686,2.645,2.7725,16.4518-.1621,31.8292-8.738,46.1555-6.8392,11.4252-16.2044,20.4028-27.0608,27.8821-12.9438,8.9174-27.2636,14.7417-42.467,18.5883-12.2678,3.1038-24.7366,4.2311-35.8548,4.4338Zm-1.1718-30.9817c2.9205,.2846,6.874-.1514,10.7625-.6929,8.7747-1.2218,17.2052-3.7255,24.9192-8.2029,3.3494-1.9441,6.7364-3.9593,8.8791-7.3768,1.8923-3.018,1.7028-5.7875-.4155-7.8018-3.1616-3.0063-6.5812-3.5998-9.513-1.528-3.635,2.5688-7.4851,4.7183-11.5873,6.4474-10.767,4.5384-21.9192,6.1028-33.4659,4.2012-9.413-1.5501-18.0571-5.071-25.8842-10.5827-3.8687-2.7243-9.8599-.3991-11.1189,4.1966-.1514,.5527-.1117,1.0395-.0527,1.5911,.4308,4.0263,3.2224,6.1986,6.2801,8.213,12.1862,8.0284,25.6414,11.6032,41.1968,11.5357Zm39.9413-50.7941c9.737,.3758,18.4796-8.7933,18.462-18.0543-.0194-10.1782-8.2215-18.5206-18.2917-18.5389-9.9265-.018-18.4364,8.2001-18.4261,17.7941,.0112,10.3455,8.2267,18.8055,18.2558,18.7991Zm-100.0249-18.381c.0293,10.2597,8.3797,18.399,18.8516,18.3751,9.3764-.0215,17.8207-8.712,17.7315-18.3803-.0944-10.2433-8.7952-18.4136-18.4028-18.2412-9.959,.1787-18.2087,8.3103-18.1804,18.2465Z"/></svg>